<svg width="16" height="15" viewBox="0 0 16 15" fill="none" xmlns="http://www.w3.org/2000/svg">
<g clip-path="url(#clip0_93_166)">
<path d="M14.9998 3.4502H10.7998" stroke="white" stroke-width="1.5" stroke-miterlimit="10" stroke-linecap="round" stroke-linejoin="round"/>
<path d="M3.8 3.4502H1" stroke="white" stroke-width="1.5" stroke-miterlimit="10" stroke-linecap="round" stroke-linejoin="round"/>
<path d="M6.5999 5.9C7.953 5.9 9.0499 4.8031 9.0499 3.45C9.0499 2.0969 7.953 1 6.5999 1C5.2468 1 4.1499 2.0969 4.1499 3.45C4.1499 4.8031 5.2468 5.9 6.5999 5.9Z" stroke="white" stroke-width="1.5" stroke-miterlimit="10" stroke-linecap="round" stroke-linejoin="round"/>
<path d="M15.0002 11.1499H12.2002" stroke="white" stroke-width="1.5" stroke-miterlimit="10" stroke-linecap="round" stroke-linejoin="round"/>
<path d="M5.2 11.1499H1" stroke="white" stroke-width="1.5" stroke-miterlimit="10" stroke-linecap="round" stroke-linejoin="round"/>
<path d="M9.4002 13.6002C10.7533 13.6002 11.8502 12.5033 11.8502 11.1502C11.8502 9.79709 10.7533 8.7002 9.4002 8.7002C8.0471 8.7002 6.9502 9.79709 6.9502 11.1502C6.9502 12.5033 8.0471 13.6002 9.4002 13.6002Z" stroke="white" stroke-width="1.5" stroke-miterlimit="10" stroke-linecap="round" stroke-linejoin="round"/>
</g>
<defs>
<clipPath id="clip0_93_166">
<rect width="16" height="15" fill="white"/>
</clipPath>
</defs>
</svg>
