<svg width="24" height="24" viewBox="0 0 24 24" fill="none" xmlns="http://www.w3.org/2000/svg">
<path d="M12.35 23C12.35 23 5 13.4135 5 9.35C5 8.38478 5.19011 7.42902 5.55949 6.53728C5.92886 5.64553 6.47025 4.83528 7.15277 4.15276C7.83528 3.47025 8.64553 2.92886 9.53728 2.55949C10.429 2.19011 11.3848 2 12.35 2C13.3152 2 14.271 2.19011 15.1627 2.55949C16.0545 2.92886 16.8647 3.47025 17.5472 4.15276C18.2297 4.83528 18.7711 5.64553 19.1405 6.53728C19.5099 7.42902 19.7 8.38478 19.7 9.35C19.7 13.4135 12.35 23 12.35 23ZM12.35 11.45C12.907 11.45 13.4411 11.2287 13.8349 10.8349C14.2288 10.4411 14.45 9.90695 14.45 9.35C14.45 8.79305 14.2288 8.2589 13.8349 7.86508C13.4411 7.47125 12.907 7.25 12.35 7.25C11.793 7.25 11.2589 7.47125 10.8651 7.86508C10.4713 8.2589 10.25 8.79305 10.25 9.35C10.25 9.90695 10.4713 10.4411 10.8651 10.8349C11.2589 11.2287 11.793 11.45 12.35 11.45Z" fill="#D9A373"/>
</svg>
