<svg width="80" height="80" viewBox="0 0 80 80" fill="none" xmlns="http://www.w3.org/2000/svg">
<g clip-path="url(#clip0_135_159)">
<path d="M40 80C62.0914 80 80 62.0914 80 40C80 17.9086 62.0914 0 40 0C17.9086 0 0 17.9086 0 40C0 62.0914 17.9086 80 40 80Z" fill="#D9A373"/>
<path d="M52.974 35.7612C52.974 35.3426 52.8066 34.9241 52.5053 34.6228L50.2285 32.346C49.9272 32.0446 49.5086 31.8772 49.0901 31.8772C48.6716 31.8772 48.253 32.0446 47.9517 32.346L36.9696 43.3449L32.0477 38.4062C31.7464 38.1049 31.3278 37.9375 30.9093 37.9375C30.4908 37.9375 30.0722 38.1049 29.7709 38.4062L27.4941 40.683C27.1928 40.9844 27.0254 41.4029 27.0254 41.8214C27.0254 42.24 27.1928 42.6585 27.4941 42.9598L33.5544 49.0201L35.8312 51.2969C36.1325 51.5982 36.551 51.7656 36.9696 51.7656C37.3881 51.7656 37.8066 51.5982 38.108 51.2969L40.3847 49.0201L52.5053 36.8996C52.8066 36.5982 52.974 36.1797 52.974 35.7612Z" fill="white"/>
</g>
<defs>
<clipPath id="clip0_135_159">
<rect width="80" height="80" fill="white"/>
</clipPath>
</defs>
</svg>
