<svg width="24" height="24" viewBox="0 0 24 24" fill="none" xmlns="http://www.w3.org/2000/svg">
<path fill-rule="evenodd" clip-rule="evenodd" d="M11.7648 2.40138C15.3543 2.34682 17.602 3.80113 18.6595 6.35148C19.0087 7.1931 19.3817 8.74117 19.1015 10.0256C18.9898 10.5384 18.9581 11.0736 18.8069 11.5569C18.4993 12.5394 18.0993 13.4092 17.5694 14.1592C16.8499 15.1782 15.7582 15.8653 14.3872 16.2109C13.1746 16.5164 12.0593 16.059 11.4113 15.5678C11.2048 15.4115 10.9279 15.2073 10.8515 14.9251C10.8417 14.9251 10.8318 14.9251 10.822 14.9251C10.7755 15.4401 10.5782 15.9868 10.4389 16.4561C10.2461 17.1053 10.2086 17.7774 9.96749 18.3849C9.69999 19.0592 9.37509 19.6772 9.02467 20.253C8.84068 20.5549 8.33293 21.5884 7.9639 21.5999C7.92354 21.5224 7.90737 21.4925 7.90493 21.3551C7.7861 21.1659 7.86888 20.8468 7.81652 20.5893C7.73505 20.1883 7.67161 19.466 7.75769 19.0588C7.75769 18.8444 7.75769 18.6296 7.75769 18.4157C7.85257 17.9742 7.84882 17.5217 7.9639 17.0991C8.21425 16.1787 8.35354 15.2038 8.61211 14.2512C8.86057 13.3361 9.08856 12.3352 9.28987 11.4038C9.33529 11.1934 9.07963 10.5886 9.02467 10.3628C8.85134 9.65014 8.9833 8.66239 9.20146 8.12713C9.47618 7.45323 10.2804 6.4241 11.3229 6.68821C12.1607 6.90037 12.694 7.80624 12.413 8.95421C12.1181 10.159 11.7356 11.2383 11.4702 12.4443C11.4019 12.7551 11.5194 13.0852 11.588 13.2714C11.8361 13.9431 12.5882 14.5955 13.5916 14.3432C15.1126 13.9603 15.785 12.5834 16.2435 11.0974C16.3676 10.6955 16.3527 10.3157 16.4498 9.87241C16.6545 8.93705 16.5676 7.54083 16.273 6.81057C15.8008 5.64018 14.9198 4.89011 13.7095 4.48339C13.3756 4.42221 13.0416 4.36103 12.7077 4.29985C12.1486 4.17176 11.0822 4.36412 10.7041 4.48339C9.01386 5.01777 7.96723 5.91043 7.3157 7.51486C7.09393 8.06111 6.97235 8.61484 6.9327 9.38251C6.92276 9.47451 6.91294 9.5665 6.90314 9.6585C7.03364 10.3447 7.04691 10.7994 7.3157 11.3118C7.44838 11.5644 7.76346 11.7634 7.81652 12.0772C7.84781 12.2621 7.71227 12.5412 7.66931 12.6895C7.60427 12.9136 7.62792 13.1702 7.52193 13.3634C7.33028 13.712 6.8084 13.4501 6.57911 13.3018C5.38697 12.5324 4.40437 10.3073 4.95855 8.15795C5.04391 7.82607 5.0481 7.53731 5.16476 7.23932C5.8878 5.39455 6.96659 4.26111 8.5237 3.28922C9.10717 2.9252 9.89394 2.74473 10.6157 2.55456C10.9987 2.50352 11.3818 2.45245 11.7648 2.40138Z" fill="#D9A373"/>
</svg>
