<svg width="24" height="24" viewBox="0 0 24 24" fill="none" xmlns="http://www.w3.org/2000/svg">
<g clip-path="url(#clip0_60_184)">
<path d="M15.4416 0.333008C14.8476 0.333008 13.9376 0.373008 12.7126 0.451008V5.02201C16.4336 5.02201 18.2906 6.74301 18.2906 10.185L18.2306 12.262H14.3746V23.182H23.5156V11.372C23.5146 4.01201 20.8226 0.333008 15.4416 0.333008ZM-0.000375748 5.02201V0.451008C1.06562 0.373008 1.81763 0.333008 2.25363 0.333008C7.63463 0.333008 10.3236 4.01301 10.3236 11.373V23.183H1.18463V12.263H5.04162L5.10062 10.186C5.10262 6.94101 3.39962 5.22001 -0.000375748 5.02201Z" fill="white"/>
</g>
<defs>
<clipPath id="clip0_60_184">
<rect width="23.516" height="23.516" fill="white" transform="matrix(-1 0 0 1 23.5156 0)"/>
</clipPath>
</defs>
</svg>
