<svg width="24" height="24" viewBox="0 0 24 24" fill="none" xmlns="http://www.w3.org/2000/svg">
<path fill-rule="evenodd" clip-rule="evenodd" d="M15.4141 4.96069C16.9197 4.93627 17.7212 5.43866 18.4865 6.07725C19.1363 6.0265 19.9807 5.69425 20.4781 5.4627C20.6392 5.38183 20.8005 5.30134 20.9617 5.22047C20.6776 5.92313 20.2924 6.4736 19.7005 6.89093C19.569 6.98362 19.4385 7.10912 19.2737 7.16825C19.2737 7.17092 19.2737 7.17397 19.2737 7.17664C20.1172 7.16864 20.813 6.82035 21.4738 6.63115C21.4738 6.63418 21.4738 6.63724 21.4738 6.64029C21.1267 7.14536 20.6569 7.65768 20.1557 8.02503C19.9533 8.17228 19.751 8.31952 19.5487 8.46677C19.5598 9.28426 19.5355 10.0643 19.3685 10.7518C18.3978 14.7465 15.8255 17.4588 11.7535 18.6203C10.2914 19.0377 7.92853 19.2089 6.25333 18.8282C5.42257 18.6394 4.67212 18.4262 3.96784 18.1443C3.57673 17.9875 3.21436 17.8181 2.86777 17.6251C2.75406 17.5614 2.64023 17.4981 2.52637 17.4343C2.90433 17.445 3.34626 17.54 3.76873 17.4778C4.15086 17.4214 4.52565 17.4359 4.87828 17.3653C5.75764 17.1887 6.53843 16.9552 7.2111 16.5947C7.53719 16.42 8.032 16.2148 8.26372 15.963C7.82709 15.9699 7.43118 15.8772 7.10687 15.7727C5.84934 15.366 5.11734 14.6187 4.64113 13.4961C5.02223 13.5338 6.11989 13.6246 6.37653 13.4266C5.89689 13.4026 5.43558 13.1482 5.10585 12.9589C4.09432 12.3795 3.26937 11.4075 3.27556 9.91216C3.40837 9.96976 3.54119 10.0277 3.67389 10.0853C3.928 10.1834 4.18629 10.2356 4.48945 10.2932C4.61747 10.3173 4.87348 10.3863 5.02045 10.3363C5.01414 10.3363 5.00781 10.3363 5.00149 10.3363C4.80582 10.1277 4.48693 9.98885 4.29025 9.76492C3.64137 9.02639 3.03321 7.89 3.41785 6.53615C3.51539 6.19283 3.67021 5.88957 3.83514 5.60994C3.84148 5.61299 3.84779 5.61566 3.85413 5.61872C3.92963 5.76329 4.09811 5.86974 4.20501 5.99066C4.5364 6.36679 4.94519 6.70515 5.36185 7.00346C6.78141 8.02008 8.05981 8.64454 10.113 9.10726C10.6337 9.22438 11.2358 9.31402 11.8579 9.31477C11.683 8.849 11.7392 8.09523 11.8768 7.64433C12.2228 6.51059 12.9744 5.69273 14.0769 5.2548C14.3405 5.15027 14.633 5.07397 14.9398 5.01257C15.0979 4.99541 15.2561 4.97824 15.4141 4.96069Z" fill="#D9A373"/>
</svg>
