<svg width="24" height="24" viewBox="0 0 24 24" fill="none" xmlns="http://www.w3.org/2000/svg">
<path d="M19.9298 5.41452C19.4816 4.96607 18.9493 4.61034 18.3636 4.36763C17.7778 4.12492 17.15 4 16.516 4C15.8819 4 15.2541 4.12492 14.6683 4.36763C14.0826 4.61034 13.5504 4.96607 13.1021 5.41452L12.1719 6.34476L11.2417 5.41452C10.3363 4.50912 9.10828 4.00047 7.82786 4.00047C6.54743 4.00047 5.31945 4.50912 4.41404 5.41452C3.50865 6.31991 3 7.5479 3 8.82833C3 10.1088 3.50865 11.3367 4.41404 12.2421L5.34429 13.1724L12.1719 20L18.9995 13.1724L19.9298 12.2421C20.3782 11.7939 20.7339 11.2617 20.9767 10.676C21.2194 10.0902 21.3442 9.46237 21.3442 8.82833C21.3442 8.19428 21.2194 7.56644 20.9767 6.98069C20.7339 6.39494 20.3782 5.86275 19.9298 5.41452Z" stroke="black" stroke-width="1.77778" stroke-linecap="round" stroke-linejoin="round"/>
</svg>
